<?xml version="1.0" encoding="UTF-8" standalone="no"?>
<!DOCTYPE svg PUBLIC "-//W3C//DTD SVG 1.1//EN"
 "http://www.w3.org/Graphics/SVG/1.1/DTD/svg11.dtd">
<!-- Generated by graphviz version 2.43.0 (0)
 -->
<!-- Title: G Pages: 1 -->
<svg width="690pt" height="248pt"
 viewBox="0.00 0.00 690.00 248.00" xmlns="http://www.w3.org/2000/svg" xmlns:xlink="http://www.w3.org/1999/xlink">
<g id="graph0" class="graph" transform="scale(1 1) rotate(0) translate(4 244)">
<title>G</title>
<polygon fill="#eeeeee" stroke="transparent" points="-4,4 -4,-244 686,-244 686,4 -4,4"/>
<g id="clust1" class="cluster">
<title>cluster_inputs</title>
<polygon fill="#eeeeee" stroke="black" stroke-dasharray="5,2" points="169,-156 169,-232 674,-232 674,-156 169,-156"/>
<text text-anchor="middle" x="607.5" y="-163.8" font-family="Times,serif" font-size="14.00">Workflow Inputs</text>
</g>
<g id="clust2" class="cluster">
<title>cluster_outputs</title>
<polygon fill="#eeeeee" stroke="black" stroke-dasharray="5,2" points="8,-8 8,-84 542,-84 542,-8 8,-8"/>
<text text-anchor="middle" x="469.5" y="-15.8" font-family="Times,serif" font-size="14.00">Workflow Outputs</text>
</g>
<!-- bam -->
<g id="node1" class="node">
<title>bam</title>
<polygon fill="#94ddf4" stroke="black" points="287,-187.5 287,-223.5 341,-223.5 341,-187.5 287,-187.5"/>
<text text-anchor="middle" x="314" y="-201.8" font-family="Times,serif" font-size="14.00">bam</text>
</g>
<!-- macs2_call_peaks -->
<g id="node5" class="node">
<title>macs2_call_peaks</title>
<ellipse fill="none" stroke="black" cx="216" cy="-130" rx="92.08" ry="18"/>
<text text-anchor="middle" x="216" y="-126.3" font-family="Times,serif" font-size="14.00">macs2_call_peaks</text>
</g>
<!-- bam&#45;&gt;macs2_call_peaks -->
<g id="edge1" class="edge">
<title>bam&#45;&gt;macs2_call_peaks</title>
<path fill="none" stroke="black" d="M304.18,-187.37C297.59,-177.13 288.09,-164.51 277,-156 274.58,-154.14 272,-152.41 269.33,-150.78"/>
<polygon fill="black" stroke="black" points="270.98,-147.69 260.52,-145.95 267.61,-153.83 270.98,-147.69"/>
</g>
<!-- makecandidateregions -->
<g id="node6" class="node">
<title>makecandidateregions</title>
<ellipse fill="none" stroke="black" cx="442" cy="-130" rx="115.88" ry="18"/>
<text text-anchor="middle" x="442" y="-126.3" font-family="Times,serif" font-size="14.00">makecandidateregions</text>
</g>
<!-- bam&#45;&gt;makecandidateregions -->
<g id="edge2" class="edge">
<title>bam&#45;&gt;makecandidateregions</title>
<path fill="none" stroke="black" d="M322.83,-187.35C329.07,-176.84 338.39,-163.92 350,-156 354.06,-153.23 358.41,-150.77 362.94,-148.58"/>
<polygon fill="black" stroke="black" points="364.66,-151.65 372.44,-144.45 361.87,-145.22 364.66,-151.65"/>
</g>
<!-- sort_order -->
<g id="node2" class="node">
<title>sort_order</title>
<polygon fill="#94ddf4" stroke="black" points="177.5,-187.5 177.5,-223.5 268.5,-223.5 268.5,-187.5 177.5,-187.5"/>
<text text-anchor="middle" x="223" y="-201.8" font-family="Times,serif" font-size="14.00">sort_order</text>
</g>
<!-- sort_order&#45;&gt;macs2_call_peaks -->
<g id="edge3" class="edge">
<title>sort_order&#45;&gt;macs2_call_peaks</title>
<path fill="none" stroke="black" d="M221.38,-187.45C220.55,-178.8 219.53,-168.07 218.6,-158.29"/>
<polygon fill="black" stroke="black" points="222.07,-157.83 217.64,-148.21 215.1,-158.5 222.07,-157.83"/>
</g>
<!-- sort_order&#45;&gt;makecandidateregions -->
<g id="edge4" class="edge">
<title>sort_order&#45;&gt;makecandidateregions</title>
<path fill="none" stroke="black" d="M237.58,-187.35C247.77,-176.56 262.31,-163.33 278,-156 281.68,-154.28 314.01,-149.22 349,-144.09"/>
<polygon fill="black" stroke="black" points="349.52,-147.55 358.92,-142.65 348.52,-140.62 349.52,-147.55"/>
</g>
<!-- regions_blocklist -->
<g id="node3" class="node">
<title>regions_blocklist</title>
<polygon fill="#94ddf4" stroke="black" points="528.5,-187.5 528.5,-223.5 665.5,-223.5 665.5,-187.5 528.5,-187.5"/>
<text text-anchor="middle" x="597" y="-201.8" font-family="Times,serif" font-size="14.00">regions_blocklist</text>
</g>
<!-- regions_blocklist&#45;&gt;makecandidateregions -->
<g id="edge5" class="edge">
<title>regions_blocklist&#45;&gt;makecandidateregions</title>
<path fill="none" stroke="black" d="M573.27,-187.36C558.48,-177.24 538.76,-164.74 520,-156 515.09,-153.71 509.91,-151.55 504.65,-149.53"/>
<polygon fill="black" stroke="black" points="505.73,-146.2 495.14,-146.04 503.32,-152.77 505.73,-146.2"/>
</g>
<!-- regions_includelist -->
<g id="node4" class="node">
<title>regions_includelist</title>
<polygon fill="#94ddf4" stroke="black" points="359.5,-187.5 359.5,-223.5 510.5,-223.5 510.5,-187.5 359.5,-187.5"/>
<text text-anchor="middle" x="435" y="-201.8" font-family="Times,serif" font-size="14.00">regions_includelist</text>
</g>
<!-- regions_includelist&#45;&gt;makecandidateregions -->
<g id="edge6" class="edge">
<title>regions_includelist&#45;&gt;makecandidateregions</title>
<path fill="none" stroke="black" d="M436.62,-187.45C437.45,-178.8 438.47,-168.07 439.4,-158.29"/>
<polygon fill="black" stroke="black" points="442.9,-158.5 440.36,-148.21 435.93,-157.83 442.9,-158.5"/>
</g>
<!-- call_peaks_output -->
<g id="node7" class="node">
<title>call_peaks_output</title>
<polygon fill="#94ddf4" stroke="black" points="144.5,-39.5 144.5,-75.5 287.5,-75.5 287.5,-39.5 144.5,-39.5"/>
<text text-anchor="middle" x="216" y="-53.8" font-family="Times,serif" font-size="14.00">call_peaks_output</text>
</g>
<!-- macs2_call_peaks&#45;&gt;call_peaks_output -->
<g id="edge7" class="edge">
<title>macs2_call_peaks&#45;&gt;call_peaks_output</title>
<path fill="none" stroke="black" d="M204.24,-111.93C202.61,-104.17 202.12,-94.78 202.79,-86.06"/>
<polygon fill="black" stroke="black" points="206.29,-86.28 204.17,-75.9 199.36,-85.33 206.29,-86.28"/>
</g>
<!-- macs2_call_peaks&#45;&gt;call_peaks_output -->
<g id="edge8" class="edge">
<title>macs2_call_peaks&#45;&gt;call_peaks_output</title>
<path fill="none" stroke="black" d="M216,-111.93C216,-104.17 216,-94.78 216,-86.06"/>
<polygon fill="black" stroke="black" points="219.5,-85.9 216,-75.9 212.5,-85.9 219.5,-85.9"/>
</g>
<!-- macs2_call_peaks&#45;&gt;call_peaks_output -->
<g id="edge9" class="edge">
<title>macs2_call_peaks&#45;&gt;call_peaks_output</title>
<path fill="none" stroke="black" d="M227.76,-111.93C229.39,-104.17 229.88,-94.78 229.21,-86.06"/>
<polygon fill="black" stroke="black" points="232.64,-85.33 227.83,-75.9 225.71,-86.28 232.64,-85.33"/>
</g>
<!-- sorted_peaks -->
<g id="node10" class="node">
<title>sorted_peaks</title>
<polygon fill="#94ddf4" stroke="black" points="16,-39.5 16,-75.5 126,-75.5 126,-39.5 16,-39.5"/>
<text text-anchor="middle" x="71" y="-53.8" font-family="Times,serif" font-size="14.00">sorted_peaks</text>
</g>
<!-- macs2_call_peaks&#45;&gt;sorted_peaks -->
<g id="edge12" class="edge">
<title>macs2_call_peaks&#45;&gt;sorted_peaks</title>
<path fill="none" stroke="black" d="M183.1,-113C162.99,-103.23 137.02,-90.6 115.15,-79.96"/>
<polygon fill="black" stroke="black" points="116.57,-76.77 106.05,-75.54 113.51,-83.06 116.57,-76.77"/>
</g>
<!-- candidate_regions -->
<g id="node8" class="node">
<title>candidate_regions</title>
<polygon fill="#94ddf4" stroke="black" points="388,-39.5 388,-75.5 534,-75.5 534,-39.5 388,-39.5"/>
<text text-anchor="middle" x="461" y="-53.8" font-family="Times,serif" font-size="14.00">candidate_regions</text>
</g>
<!-- makecandidateregions&#45;&gt;candidate_regions -->
<g id="edge10" class="edge">
<title>makecandidateregions&#45;&gt;candidate_regions</title>
<path fill="none" stroke="black" d="M446.6,-111.93C448.71,-104.08 451.28,-94.58 453.65,-85.77"/>
<polygon fill="black" stroke="black" points="457.09,-86.46 456.31,-75.9 450.33,-84.64 457.09,-86.46"/>
</g>
<!-- counts -->
<g id="node9" class="node">
<title>counts</title>
<polygon fill="#94ddf4" stroke="black" points="306,-39.5 306,-75.5 370,-75.5 370,-39.5 306,-39.5"/>
<text text-anchor="middle" x="338" y="-53.8" font-family="Times,serif" font-size="14.00">counts</text>
</g>
<!-- makecandidateregions&#45;&gt;counts -->
<g id="edge11" class="edge">
<title>makecandidateregions&#45;&gt;counts</title>
<path fill="none" stroke="black" d="M417.35,-112.29C403.7,-103.03 386.52,-91.39 371.64,-81.31"/>
<polygon fill="black" stroke="black" points="373.43,-78.29 363.19,-75.58 369.51,-84.09 373.43,-78.29"/>
</g>
</g>
</svg>
